<?xml version="1.0" encoding="iso-8859-1"?>
<!DOCTYPE svg PUBLIC "-//W3C//DTD SVG 20001102//EN"
"http://www.w3.org/TR/2000/CR-SVG-20001102/DTD/svg-20001102.dtd">
<svg width="84cm" height="350cm">
<g fill="#808080" font-size="12pt" style="font-family:Arial">
<text x="1cm" y="0.5cm">0, 0 0 0 0;</text>
<text x="1cm" y="1.0cm">10, 0 0 0 0;</text>
<text x="1cm" y="1.5cm">20, 0 0 0 0;</text>
<text x="1cm" y="2.0cm">30, 0 0 0 0;</text>
<text x="1cm" y="2.5cm">40, 0 0 0 0;</text>
<text x="1cm" y="3.0cm">50, 0 0 0 0;</text>
<text x="1cm" y="3.5cm">60, 0 0 0 0;</text>
<text x="1cm" y="4.0cm">70, 0 0 0 0;</text>
<text x="1cm" y="4.5cm">80, 0 0 0 0;</text>
<text x="1cm" y="5.0cm">90, 0 0 0 0;</text>
<text x="1cm" y="5.5cm">100, 0 0 0 0;</text>
<text x="1cm" y="6.0cm">110, 0 0 0 0;</text>
<text x="1cm" y="6.5cm">120, 0 0 0 0;</text>
<text x="1cm" y="7.0cm">130, 0 0 0 0;</text>
<text x="1cm" y="7.5cm">140, 0 0 0 0;</text>
<text x="1cm" y="8.0cm">150, 0 0 0 0;</text>
<text x="1cm" y="8.5cm">160, 0 0 0 0;</text>
<text x="1cm" y="9.0cm">170, 0 0 0 0;</text>
<text x="1cm" y="9.5cm">180, 0 0 0 0;</text>
<text x="1cm" y="10.0cm">190, 0 0 0 0;</text>
<text x="1cm" y="10.5cm">200, 0 0 0 0;</text>
<text x="1cm" y="11.0cm">210, 0 0 0 0;</text>
<text x="1cm" y="11.5cm">220, 0 0 0 0;</text>
<text x="1cm" y="12.0cm">230, 0 0 0 0;</text>
<text x="1cm" y="12.5cm">240, 0 0 0 0;</text>
<text x="1cm" y="13.0cm">250, 0 0 0 0;</text>
<text x="1cm" y="13.5cm">260, 0 0 0 0;</text>
<text x="1cm" y="14.0cm">270, 0 0 0 0;</text>
<text x="1cm" y="14.5cm">280, 0 0 0 0;</text>
<text x="1cm" y="15.0cm">290, 0 0 0 0;</text>
<text x="1cm" y="15.5cm">300, 0 0 0 0;</text>
<text x="1cm" y="16.0cm">310, 0 0 0 0;</text>
<text x="1cm" y="16.5cm">320, 0 0 0 0;</text>
<text x="1cm" y="17.0cm">330, 0 0 0 0;</text>
<text x="1cm" y="17.5cm">340, 0 0 0 0;</text>
<text x="1cm" y="18.0cm">350, 0 0 0 0;</text>
<text x="1cm" y="18.5cm">360, 0 0 0 0;</text>
<text x="1cm" y="19.0cm">370, 0 0 0 0;</text>
<text x="1cm" y="19.5cm">380, 0 0 0 0;</text>
<text x="1cm" y="20.0cm">390, 0 0 0 0;</text>
<text x="1cm" y="20.5cm">400, 0 0 0 0;</text>
<text x="1cm" y="21.0cm">410, 0 0 0 0;</text>
<text x="1cm" y="21.5cm">420, 0 0 0 0;</text>
<text x="1cm" y="22.0cm">430, 0 0 0 0;</text>
<text x="1cm" y="22.5cm">440, 0 0 0 0;</text>
<text x="1cm" y="23.0cm">450, 0 0 0 0;</text>
<text x="1cm" y="23.5cm">460, 0 0 0 0;</text>
<text x="1cm" y="24.0cm">470, 0 0 0 0;</text>
<text x="1cm" y="24.5cm">480, 0 0 0 0;</text>
<text x="1cm" y="25.0cm">490, 0 0 0 0;</text>
<text x="1cm" y="25.5cm">500, 0 0 0 0;</text>
<text x="1cm" y="26.0cm">510, 0 0 0 0;</text>
<text x="1cm" y="26.5cm">520, 0 0 0 0;</text>
<text x="1cm" y="27.0cm">530, 0 0 0 0;</text>
<text x="1cm" y="27.5cm">540, 0 0 0 0;</text>
<text x="1cm" y="28.0cm">550, 0 0 0 0;</text>
<text x="1cm" y="28.5cm">560, 0 0 0 0;</text>
<text x="1cm" y="29.0cm">570, 0 0 0 0;</text>
<text x="1cm" y="29.5cm">580, 0 0 0 0;</text>
<text x="1cm" y="30.0cm">590, 0 0 0 0;</text>
<text x="1cm" y="30.5cm">600, 0 0 0 0;</text>
<text x="1cm" y="31.0cm">610, 0 0 0 0;</text>
<text x="1cm" y="31.5cm">620, 0 0 0 0;</text>
<text x="1cm" y="32.0cm">630, 0 0 0 0;</text>
<text x="1cm" y="32.5cm">640, 0 0 0 0;</text>
<text x="1cm" y="33.0cm">650, 0 0 0 0;</text>
<text x="1cm" y="33.5cm">660, 0 0 0 0;</text>
<text x="1cm" y="34.0cm">670, 0 0 0 0;</text>
<text x="1cm" y="34.5cm">680, 0 0 0 0;</text>
<text x="1cm" y="35.0cm">690, 0 0 0 0;</text>
<text x="1cm" y="35.5cm">700, 0 0 0 0;</text>
<text x="1cm" y="36.0cm">710, 0 0 0 0;</text>
<text x="1cm" y="36.5cm">720, 0 0 0 0;</text>
<text x="1cm" y="37.0cm">730, 0 0 0 0;</text>
<text x="1cm" y="37.5cm">740, 0 0 0 0;</text>
<text x="1cm" y="38.0cm">750, 0 0 0 0;</text>
<text x="1cm" y="38.5cm">760, 0 0 0 0;</text>
<text x="1cm" y="39.0cm">770, 0 0 0 0;</text>
<text x="1cm" y="39.5cm">780, 0 0 0 0;</text>
<text x="1cm" y="40.0cm">790, 0 0 0 0;</text>
<text x="1cm" y="40.5cm">800, 0 0 0 0;</text>
<text x="1cm" y="41.0cm">810, 0 0 0 0;</text>
<text x="1cm" y="41.5cm">820, 0 0 0 0;</text>
<text x="1cm" y="42.0cm">830, 0 0 0 0;</text>
<text x="1cm" y="42.5cm">840, 0 0 0 0;</text>
<text x="1cm" y="43.0cm">850, 0 0 0 0;</text>
<text x="1cm" y="43.5cm">860, 0 0 0 0;</text>
<text x="1cm" y="44.0cm">870, 0 0 0 0;</text>
<text x="1cm" y="44.5cm">880, 0 0 0 0;</text>
<text x="1cm" y="45.0cm">890, 0 0 0 0;</text>
<text x="1cm" y="45.5cm">900, 0 0 0 0;</text>
<text x="1cm" y="46.0cm">910, 0 0 0 0;</text>
<text x="1cm" y="46.5cm">920, 0 0 0 0;</text>
<text x="1cm" y="47.0cm">930, 0 0 0 0;</text>
<text x="1cm" y="47.5cm">940, 0 0 0 0;</text>
<text x="1cm" y="48.0cm">950, 0 0 0 0;</text>
<text x="1cm" y="48.5cm">960, 0 0 0 0;</text>
<text x="1cm" y="49.0cm">970, 0 0 0 0;</text>
<text x="1cm" y="49.5cm">980, 0 0 0 0;</text>
<text x="1cm" y="50.0cm">990, 0 0 0 0;</text>
<text x="1cm" y="50.5cm">1000, 0 0 0 0;</text>
<text x="1cm" y="51.0cm">1010, 0 0 0 0;</text>
<text x="1cm" y="51.5cm">1020, 0 0 0 0;</text>
<text x="1cm" y="52.0cm">1030, 0 0 0 0;</text>
<text x="1cm" y="52.5cm">1040, 0 0 0 0;</text>
<text x="1cm" y="53.0cm">1050, 0 0 0 0;</text>
<text x="1cm" y="53.5cm">1060, 0 0 0 0;</text>
<text x="1cm" y="54.0cm">1070, 0 0 0 0;</text>
<text x="1cm" y="54.5cm">1080, 0 0 0 0;</text>
<text x="1cm" y="55.0cm">1090, 0 0 0 0;</text>
<text x="1cm" y="55.5cm">1100, 0 0 0 0;</text>
<text x="1cm" y="56.0cm">1110, 0 0 0 0;</text>
<text x="1cm" y="56.5cm">1120, 0 0 0 0;</text>
<text x="1cm" y="57.0cm">1130, 0 0 0 0;</text>
<text x="1cm" y="57.5cm">1140, 0 0 0 0;</text>
<text x="1cm" y="58.0cm">1150, 0 0 0 0;</text>
<text x="1cm" y="58.5cm">1160, 0 0 0 0;</text>
<text x="1cm" y="59.0cm">1170, 0 0 0 0;</text>
<text x="1cm" y="59.5cm">1180, 0 0 0 0;</text>
<text x="1cm" y="60.0cm">1190, 0 0 0 0;</text>
<text x="1cm" y="60.5cm">1200, 0 0 0 0;</text>
<text x="1cm" y="61.0cm">1210, 0 0 0 0;</text>
<text x="1cm" y="61.5cm">1220, 0 0 0 0;</text>
<text x="1cm" y="62.0cm">1230, 0 0 0 0;</text>
<text x="1cm" y="62.5cm">1240, 0 0 0 0;</text>
<text x="1cm" y="63.0cm">1250, 0 0 0 0;</text>
<text x="1cm" y="63.5cm">1260, 0 0 0 0;</text>
<text x="1cm" y="64.0cm">1270, 0 0 0 0;</text>
<text x="1cm" y="64.5cm">1280, 0 0 0 0;</text>
<text x="1cm" y="65.0cm">1290, 0 0 0 0;</text>
<text x="1cm" y="65.5cm">1300, 0 0 0 0;</text>
<text x="1cm" y="66.0cm">1310, 0 0 0 0;</text>
<text x="1cm" y="66.5cm">1320, 0 0 0 0;</text>
<text x="1cm" y="67.0cm">1330, 0 0 0 0;</text>
<text x="1cm" y="67.5cm">1340, 0 0 0 0;</text>
<text x="1cm" y="68.0cm">1350, 0 0 0 0;</text>
<text x="1cm" y="68.5cm">1360, 0 0 0 0;</text>
<text x="1cm" y="69.0cm">1370, 0 0 0 0;</text>
<text x="1cm" y="69.5cm">1380, 0 1 0 4;</text>
<text x="1cm" y="70.0cm">1390, 0 0 0 0;</text>
<text x="1cm" y="70.5cm">1400, 0 0 0 0;</text>
<text x="1cm" y="71.0cm">1410, 0 0 0 0;</text>
<text x="1cm" y="71.5cm">1420, 0 0 0 0;</text>
<text x="1cm" y="72.0cm">1430, 0 0 0 0;</text>
<text x="1cm" y="72.5cm">1440, 0 0 0 0;</text>
<text x="1cm" y="73.0cm">1450, 0 0 0 0;</text>
<text x="1cm" y="73.5cm">1460, 0 0 0 0;</text>
<text x="1cm" y="74.0cm">1470, 0 0 0 0;</text>
<text x="1cm" y="74.5cm">1480, 0 1 0 4;</text>
<text x="1cm" y="75.0cm">1490, 0 0 0 0;</text>
<text x="1cm" y="75.5cm">1500, 0 0 0 0;</text>
<text x="1cm" y="76.0cm">1510, 0 0 0 0;</text>
<text x="1cm" y="76.5cm">1520, 0 0 0 0;</text>
<text x="1cm" y="77.0cm">1530, 0 0 0 0;</text>
<text x="1cm" y="77.5cm">1540, 0 0 0 0;</text>
<text x="1cm" y="78.0cm">1550, 0 0 0 0;</text>
<text x="1cm" y="78.5cm">1560, 0 0 0 0;</text>
<text x="1cm" y="79.0cm">1570, 0 0 0 0;</text>
<text x="1cm" y="79.5cm">1580, 0 0 0 0;</text>
<text x="1cm" y="80.0cm">1590, 0 0 0 0;</text>
<text x="1cm" y="80.5cm">1600, 0 0 0 0;</text>
<text x="1cm" y="81.0cm">1610, 0 0 0 0;</text>
<text x="1cm" y="81.5cm">1620, 0 0 0 0;</text>
<text x="1cm" y="82.0cm">1630, 0 0 0 0;</text>
<text x="1cm" y="82.5cm">1640, 0 0 0 0;</text>
<text x="1cm" y="83.0cm">1650, 0 0 0 0;</text>
<text x="1cm" y="83.5cm">1660, 0 0 0 0;</text>
<text x="1cm" y="84.0cm">1670, 0 0 0 0;</text>
<text x="1cm" y="84.5cm">1680, 0 0 0 0;</text>
<text x="1cm" y="85.0cm">1690, 0 0 0 0;</text>
<text x="1cm" y="85.5cm">1700, 0 0 0 0;</text>
<text x="1cm" y="86.0cm">1710, 0 0 0 0;</text>
<text x="1cm" y="86.5cm">1720, 0 0 0 0;</text>
<text x="1cm" y="87.0cm">1730, 0 0 0 0;</text>
<text x="1cm" y="87.5cm">1740, 0 0 0 0;</text>
<text x="1cm" y="88.0cm">1750, 0 0 0 0;</text>
<text x="1cm" y="88.5cm">1760, 0 0 0 0;</text>
<text x="1cm" y="89.0cm">1770, 0 0 0 0;</text>
<text x="1cm" y="89.5cm">1780, 0 0 0 0;</text>
<text x="1cm" y="90.0cm">1790, 0 0 0 0;</text>
<text x="1cm" y="90.5cm">1800, 0 0 0 0;</text>
<text x="1cm" y="91.0cm">1810, 0 0 0 0;</text>
<text x="1cm" y="91.5cm">1820, 0 0 0 0;</text>
<text x="1cm" y="92.0cm">1830, 0 0 0 0;</text>
<text x="1cm" y="92.5cm">1840, 0 0 0 0;</text>
<text x="1cm" y="93.0cm">1850, 0 0 0 0;</text>
<text x="1cm" y="93.5cm">1860, 0 0 0 0;</text>
<text x="1cm" y="94.0cm">1870, 0 0 0 0;</text>
<text x="1cm" y="94.5cm">1880, 0 0 0 0;</text>
<text x="1cm" y="95.0cm">1890, 0 0 0 0;</text>
<text x="1cm" y="95.5cm">1900, 0 0 0 0;</text>
<text x="1cm" y="96.0cm">1910, 0 0 0 0;</text>
<text x="1cm" y="96.5cm">1920, 0 0 0 0;</text>
<text x="1cm" y="97.0cm">1930, 0 0 0 0;</text>
<text x="1cm" y="97.5cm">1940, 0 0 0 0;</text>
<text x="1cm" y="98.0cm">1950, 0 0 0 0;</text>
<text x="1cm" y="98.5cm">1960, 0 0 0 0;</text>
<text x="1cm" y="99.0cm">1970, 0 0 0 0;</text>
<text x="1cm" y="99.5cm">1980, 0 0 0 0;</text>
<text x="1cm" y="100.0cm">1990, 0 0 0 0;</text>
<text x="1cm" y="100.5cm">2000, 0 0 0 0;</text>
<text x="1cm" y="101.0cm">2010, 0 0 0 0;</text>
<text x="1cm" y="101.5cm">2020, 0 0 0 0;</text>
<text x="1cm" y="102.0cm">2030, 0 0 0 0;</text>
<text x="1cm" y="102.5cm">2040, 0 0 0 0;</text>
<text x="1cm" y="103.0cm">2050, 0 0 0 0;</text>
<text x="1cm" y="103.5cm">2060, 0 0 0 0;</text>
<text x="1cm" y="104.0cm">2070, 0 0 0 0;</text>
<text x="1cm" y="104.5cm">2080, 0 0 0 0;</text>
<text x="1cm" y="105.0cm">2090, 0 0 0 0;</text>
<text x="1cm" y="105.5cm">2100, 0 0 0 0;</text>
<text x="1cm" y="106.0cm">2110, 0 0 0 0;</text>
<text x="1cm" y="106.5cm">2120, 0 0 0 0;</text>
<text x="1cm" y="107.0cm">2130, 0 0 0 0;</text>
<text x="1cm" y="107.5cm">2140, 0 0 0 0;</text>
<text x="1cm" y="108.0cm">2150, 0 0 0 0;</text>
<text x="1cm" y="108.5cm">2160, 0 0 0 0;</text>
<text x="1cm" y="109.0cm">2170, 0 0 0 0;</text>
<text x="1cm" y="109.5cm">2180, 0 0 0 0;</text>
<text x="1cm" y="110.0cm">2190, 0 0 0 0;</text>
<text x="1cm" y="110.5cm">2200, 0 0 0 0;</text>
<text x="1cm" y="111.0cm">2210, 0 0 0 0;</text>
<text x="1cm" y="111.5cm">2220, 0 0 0 0;</text>
<text x="1cm" y="112.0cm">2230, 0 0 0 0;</text>
<text x="1cm" y="112.5cm">2240, 0 0 0 0;</text>
<text x="1cm" y="113.0cm">2250, 0 0 0 0;</text>
<text x="1cm" y="113.5cm">2260, 0 0 0 0;</text>
<text x="1cm" y="114.0cm">2270, 0 0 0 0;</text>
<text x="1cm" y="114.5cm">2280, 0 0 0 0;</text>
<text x="1cm" y="115.0cm">2290, 0 0 0 0;</text>
<text x="1cm" y="115.5cm">2300, 0 0 0 0;</text>
<text x="1cm" y="116.0cm">2310, 0 0 0 0;</text>
<text x="1cm" y="116.5cm">2320, 0 0 0 0;</text>
<text x="1cm" y="117.0cm">2330, 0 0 0 0;</text>
<text x="1cm" y="117.5cm">2340, 0 0 0 0;</text>
<text x="1cm" y="118.0cm">2350, 0 0 0 0;</text>
<text x="1cm" y="118.5cm">2360, 0 0 0 0;</text>
<text x="1cm" y="119.0cm">2370, 0 0 0 0;</text>
<text x="1cm" y="119.5cm">2380, 0 0 0 0;</text>
<text x="1cm" y="120.0cm">2390, 0 0 0 0;</text>
<text x="1cm" y="120.5cm">2400, 0 0 0 0;</text>
<text x="1cm" y="121.0cm">2410, 0 0 0 0;</text>
<text x="1cm" y="121.5cm">2420, 0 0 0 0;</text>
<text x="1cm" y="122.0cm">2430, 0 0 0 0;</text>
<text x="1cm" y="122.5cm">2440, 0 0 0 0;</text>
<text x="1cm" y="123.0cm">2450, 0 0 0 0;</text>
<text x="1cm" y="123.5cm">2460, 0 0 0 0;</text>
<text x="1cm" y="124.0cm">2470, 0 0 0 0;</text>
<text x="1cm" y="124.5cm">2480, 0 0 0 0;</text>
<text x="1cm" y="125.0cm">2490, 0 0 0 0;</text>
<text x="1cm" y="125.5cm">2500, 0 0 0 0;</text>
<text x="1cm" y="126.0cm">2510, 0 0 0 0;</text>
<text x="1cm" y="126.5cm">2520, 0 0 0 0;</text>
<text x="1cm" y="127.0cm">2530, 0 0 0 0;</text>
<text x="1cm" y="127.5cm">2540, 0 0 0 0;</text>
<text x="1cm" y="128.0cm">2550, 0 0 0 0;</text>
<text x="1cm" y="128.5cm">2560, 0 0 0 0;</text>
<text x="1cm" y="129.0cm">2570, 0 0 0 0;</text>
<text x="1cm" y="129.5cm">2580, 0 0 0 0;</text>
<text x="1cm" y="130.0cm">2590, 0 0 0 0;</text>
<text x="1cm" y="130.5cm">2600, 0 0 0 0;</text>
<text x="1cm" y="131.0cm">2610, 0 0 0 0;</text>
<text x="1cm" y="131.5cm">2620, 0 0 0 0;</text>
<text x="1cm" y="132.0cm">2630, 0 0 0 0;</text>
<text x="1cm" y="132.5cm">2640, 0 0 0 0;</text>
<text x="1cm" y="133.0cm">2650, 0 0 0 0;</text>
<text x="1cm" y="133.5cm">2660, 0 0 0 0;</text>
<text x="1cm" y="134.0cm">2670, 0 0 0 0;</text>
<text x="1cm" y="134.5cm">2680, 0 0 0 0;</text>
<text x="1cm" y="135.0cm">2690, 0 0 0 0;</text>
<text x="1cm" y="135.5cm">2700, 0 0 0 0;</text>
<text x="1cm" y="136.0cm">2710, 0 0 0 0;</text>
<text x="1cm" y="136.5cm">2720, 0 0 0 0;</text>
<text x="1cm" y="137.0cm">2730, 0 0 0 0;</text>
<text x="1cm" y="137.5cm">2740, 0 0 0 0;</text>
<text x="1cm" y="138.0cm">2750, 0 0 0 0;</text>
<text x="1cm" y="138.5cm">2760, 0 0 0 0;</text>
<text x="1cm" y="139.0cm">2770, 0 0 0 0;</text>
<text x="1cm" y="139.5cm">2780, 0 0 0 0;</text>
<text x="1cm" y="140.0cm">2790, 0 0 0 0;</text>
<text x="1cm" y="140.5cm">2800, 0 0 0 0;</text>
<text x="1cm" y="141.0cm">2810, 0 0 0 0;</text>
<text x="1cm" y="141.5cm">2820, 0 0 0 0;</text>
<text x="1cm" y="142.0cm">2830, 0 0 0 0;</text>
<text x="1cm" y="142.5cm">2840, 0 0 0 0;</text>
<text x="1cm" y="143.0cm">2850, 0 0 0 0;</text>
<text x="1cm" y="143.5cm">2860, 0 0 0 0;</text>
<text x="1cm" y="144.0cm">2870, 0 0 0 0;</text>
<text x="1cm" y="144.5cm">2880, 0 0 0 0;</text>
<text x="1cm" y="145.0cm">2890, 0 0 0 0;</text>
<text x="1cm" y="145.5cm">2900, 0 0 0 0;</text>
<text x="1cm" y="146.0cm">2910, 0 0 0 0;</text>
<text x="1cm" y="146.5cm">2920, 0 0 0 0;</text>
<text x="1cm" y="147.0cm">2930, 0 0 0 0;</text>
<text x="1cm" y="147.5cm">2940, 0 0 0 0;</text>
<text x="1cm" y="148.0cm">2950, 0 0 0 0;</text>
<text x="1cm" y="148.5cm">2960, 0 0 0 0;</text>
<text x="1cm" y="149.0cm">2970, 0 0 0 0;</text>
<text x="1cm" y="149.5cm">2980, 0 0 0 0;</text>
<text x="1cm" y="150.0cm">2990, 0 0 0 0;</text>
<text x="1cm" y="150.5cm">3000, 0 0 0 0;</text>
<text x="1cm" y="151.0cm">3010, 0 0 0 0;</text>
<text x="1cm" y="151.5cm">3020, 0 0 0 0;</text>
<text x="1cm" y="152.0cm">3030, 0 0 0 0;</text>
<text x="1cm" y="152.5cm">3040, 0 0 0 0;</text>
<text x="1cm" y="153.0cm">3050, 0 0 0 0;</text>
<text x="1cm" y="153.5cm">3060, 0 0 0 0;</text>
<text x="1cm" y="154.0cm">3070, 0 0 0 0;</text>
<text x="1cm" y="154.5cm">3080, 0 0 0 0;</text>
<text x="1cm" y="155.0cm">3090, 0 0 0 0;</text>
<text x="1cm" y="155.5cm">3100, 0 0 0 0;</text>
<text x="1cm" y="156.0cm">3110, 0 0 0 0;</text>
<text x="1cm" y="156.5cm">3120, 0 0 0 0;</text>
<text x="1cm" y="157.0cm">3130, 0 0 0 0;</text>
<text x="1cm" y="157.5cm">3140, 0 0 0 0;</text>
<text x="1cm" y="158.0cm">3150, 0 0 0 0;</text>
<text x="1cm" y="158.5cm">3160, 0 0 0 0;</text>
<text x="1cm" y="159.0cm">3170, 0 0 0 0;</text>
<text x="1cm" y="159.5cm">3180, 0 0 0 0;</text>
<text x="1cm" y="160.0cm">3190, 0 0 0 0;</text>
<text x="1cm" y="160.5cm">3200, 0 0 0 0;</text>
<text x="1cm" y="161.0cm">3210, 0 0 0 0;</text>
<text x="1cm" y="161.5cm">3220, 0 0 0 0;</text>
<text x="1cm" y="162.0cm">3230, 0 0 0 0;</text>
<text x="1cm" y="162.5cm">3240, 0 0 0 0;</text>
<text x="1cm" y="163.0cm">3250, 0 0 0 0;</text>
<text x="1cm" y="163.5cm">3260, 0 0 0 0;</text>
<text x="1cm" y="164.0cm">3270, 0 0 0 0;</text>
<text x="1cm" y="164.5cm">3280, 0 0 0 0;</text>
<text x="1cm" y="165.0cm">3290, 0 0 0 0;</text>
<text x="1cm" y="165.5cm">3300, 0 0 0 0;</text>
<text x="1cm" y="166.0cm">3310, 0 0 0 0;</text>
<text x="1cm" y="166.5cm">3320, 0 0 0 0;</text>
<text x="1cm" y="167.0cm">3330, 0 0 0 0;</text>
<text x="1cm" y="167.5cm">3340, 0 0 0 0;</text>
<text x="1cm" y="168.0cm">3350, 0 0 0 0;</text>
<text x="1cm" y="168.5cm">3360, 0 0 0 0;</text>
<text x="1cm" y="169.0cm">3370, 0 0 0 0;</text>
<text x="1cm" y="169.5cm">3380, 0 0 0 0;</text>
<text x="1cm" y="170.0cm">3390, 0 0 0 0;</text>
<text x="1cm" y="170.5cm">3400, 0 0 0 0;</text>
<text x="1cm" y="171.0cm">3410, 0 0 0 0;</text>
<text x="1cm" y="171.5cm">3420, 0 0 0 0;</text>
<text x="1cm" y="172.0cm">3430, 0 0 0 0;</text>
<text x="1cm" y="172.5cm">3440, 0 0 0 0;</text>
<text x="1cm" y="173.0cm">3450, 0 0 0 0;</text>
<text x="1cm" y="173.5cm">3460, 0 0 0 0;</text>
<text x="1cm" y="174.0cm">3470, 0 0 0 0;</text>
<text x="1cm" y="174.5cm">3480, 0 0 0 0;</text>
<text x="1cm" y="175.0cm">3490, 0 0 0 0;</text>
<text x="1cm" y="175.5cm">3500, 0 0 0 0;</text>
<text x="1cm" y="176.0cm">3510, 0 0 0 0;</text>
<text x="1cm" y="176.5cm">3520, 0 0 0 0;</text>
<text x="1cm" y="177.0cm">3530, 0 0 0 0;</text>
<text x="1cm" y="177.5cm">3540, 0 0 0 0;</text>
<text x="1cm" y="178.0cm">3550, 0 0 0 0;</text>
<text x="1cm" y="178.5cm">3560, 0 0 0 0;</text>
<text x="1cm" y="179.0cm">3570, 0 0 0 0;</text>
<text x="1cm" y="179.5cm">3580, 0 0 0 0;</text>
<text x="1cm" y="180.0cm">3590, 0 0 0 0;</text>
<text x="1cm" y="180.5cm">3600, 0 0 0 0;</text>
<text x="1cm" y="181.0cm">3610, 0 0 0 0;</text>
<text x="1cm" y="181.5cm">3620, 0 0 0 0;</text>
</g>
</svg>


